<svg version="1.1" id="Layer_1" xmlns="http://www.w3.org/2000/svg" x="0" y="0" viewBox="0 0 1310.3 427.5" xml:space="preserve"><style>.st0{fill:#009345}</style><path class="st0" d="M792.5 137.5l-20.2 74c-1.7 6.5-7.6 33.7-9.6 53.5h-1.8c-2-21.6-7.4-44.8-9.6-55l-16.2-72.4h-51.5L667.5 210c-2.3 10.2-7.7 33.5-9.6 55h-1.8c-2-19.9-7.9-47-9.6-53.5l-20.2-74H567L620 306c6.5 20.7 17.3 31.5 35.7 31.5 18.2 0 29.8-11.3 34.3-31.5l7.9-34.3c3.4-14.5 8.2-35.5 10.5-51.3h1.7c2.3 15.9 7.1 36.9 10.5 51.3l7.9 34.3c4.8 20.1 16.2 31.5 34.3 31.5 18.4 0 29.2-10.8 35.7-31.5l53-168.5h-59zM953 133.3c-60.1 0-106.4 44.5-106.4 102.1 0 57.6 46.2 102.1 106.4 102.1 60.1 0 106.4-44.5 106.4-102.1 0-57.6-46.2-102.1-106.4-102.1zm0 154.5c-29.5 0-52.5-23-52.5-52.5s23-52.5 52.5-52.5 52.5 23 52.5 52.5c0 29.6-23 52.5-52.5 52.5zM1279.5 220.6h-114.3v40.3h62.7c-3.1 14.8-21.6 29.2-47.1 29.2-35.3 0-54.2-23.8-54.2-54.7 0-29.8 22.7-52.8 53.3-52.8 21.3 0 37.4 10.8 46.2 27.2l49.1-20.1c-17.3-34-49.4-56.4-95.3-56.4-59.6 0-106.4 44.2-106.4 102.1 0 57.9 44.8 102.1 106.4 102.1 67.6 0 111-53.1 99.6-116.9z"/><g><path d="M437.7 16.4c-35.7 0-64.6 28.9-64.6 64.6 0 10.3 2.4 20 6.7 28.6L437.7 227l57.9-117.4c4.3-8.6 6.7-18.4 6.7-28.6.1-35.7-28.9-64.6-64.6-64.6z" fill="#8bc53f"/><path class="st0" d="M231.2 297.9l-52.6 106.6L33 109.6c-15.8-32-2.7-70.8 29.3-86.6 32-15.8 70.8-2.7 86.6 29.3L231.2 219c12.3 24.9 12.3 54.1 0 78.9zM404.6 297.9L352 404.5 206.3 109.6c-15.8-32-2.7-70.8 29.3-86.6 32-15.8 70.8-2.7 86.6 29.3L404.5 219c12.3 24.9 12.3 54.1.1 78.9z"/></g></svg>