<svg xmlns="http://www.w3.org/2000/svg" xmlns:xlink="http://www.w3.org/1999/xlink" width="48" height="48" viewBox="0 0 48 48">
    <defs>
        <path id="6s9epixsea" d="M6.648 5.968C8.308 4.691 10.373 3.997 12.5 4c2.214 0 4.248.736 5.852 1.968l1.514-1.453 1.473 1.414-1.514 1.453c3.063 3.681 2.65 9.007-.947 12.213-3.596 3.205-9.16 3.205-12.756 0-3.597-3.206-4.01-8.532-.947-12.213L3.661 5.93l1.473-1.414 1.514 1.453v-.001zM12.5 20c2.605 0 5.012-1.334 6.315-3.5 1.302-2.166 1.302-4.834 0-7C17.512 7.334 15.105 6 12.5 6c-4.027 0-7.292 3.134-7.292 7s3.265 7 7.292 7zm1.042-8h3.125l-5.209 6.5V14H8.333l5.209-6.505V12zM8.333 1h8.334v2H8.333V1z"/>
    </defs>
    <g fill="none" fill-rule="evenodd">
        <g>
            <g>
                <g>
                    <g>
                        <path fill="#15CB32" fill-opacity=".15" d="M15.383 0h17.234c5.349 0 7.289.557 9.244 1.603 1.956 1.046 3.49 2.58 4.536 4.536C47.443 8.094 48 10.034 48 15.383v17.234c0 5.349-.557 7.289-1.603 9.244-1.046 1.956-2.58 3.49-4.536 4.536C39.906 47.443 37.966 48 32.617 48H15.383c-5.349 0-7.289-.557-9.244-1.603-1.956-1.046-3.49-2.58-4.536-4.536C.557 39.906 0 37.966 0 32.617V15.383c0-5.349.557-7.289 1.603-9.244 1.046-1.956 2.58-3.49 4.536-4.536C8.094.557 10.034 0 15.383 0z" transform="translate(-890 -1221) translate(60 967) translate(800 224) translate(30 30)"/>
                        <g transform="translate(-890 -1221) translate(60 967) translate(800 224) translate(30 30) translate(12 12)">
                            <mask id="n2221owvkb" fill="#fff">
                                <use xlink:href="#6s9epixsea"/>
                            </mask>
                            <use fill="#000" fill-rule="nonzero" xlink:href="#6s9epixsea"/>
                            <path fill="#15CB32" fill-rule="nonzero" d="M0 0H25V24H0z" mask="url(#n2221owvkb)"/>
                        </g>
                    </g>
                </g>
            </g>
        </g>
    </g>
</svg>
