<svg xmlns="http://www.w3.org/2000/svg" xmlns:xlink="http://www.w3.org/1999/xlink" width="48" height="48" viewBox="0 0 48 48">
    <defs>
        <path id="lp4108kj3a" d="M12.5 1l8.56 1.826c.475.102.815.507.815.976v9.987c0 2.006-1.045 3.88-2.783 4.992L12.5 23l-6.592-4.219c-1.74-1.113-2.783-2.986-2.783-4.991V3.802c0-.469.34-.874.816-.976L12.5 1zm0 2.049L5.208 4.604v9.185c0 1.337.696 2.586 1.856 3.328l5.436 3.48 5.436-3.48c1.16-.742 1.856-1.99 1.856-3.327V4.604L12.5 3.05v-.001zm4.637 5.173l1.474 1.414L11.982 16l-4.42-4.243 1.473-1.414 2.946 2.828 5.156-4.95v.001z"/>
    </defs>
    <g fill="none" fill-rule="evenodd">
        <g>
            <g>
                <g>
                    <g>
                        <path fill="#E39A15" fill-opacity=".15" d="M15.383 0h17.234c5.349 0 7.289.557 9.244 1.603 1.956 1.046 3.49 2.58 4.536 4.536C47.443 8.094 48 10.034 48 15.383v17.234c0 5.349-.557 7.289-1.603 9.244-1.046 1.956-2.58 3.49-4.536 4.536C39.906 47.443 37.966 48 32.617 48H15.383c-5.349 0-7.289-.557-9.244-1.603-1.956-1.046-3.49-2.58-4.536-4.536C.557 39.906 0 37.966 0 32.617V15.383c0-5.349.557-7.289 1.603-9.244 1.046-1.956 2.58-3.49 4.536-4.536C8.094.557 10.034 0 15.383 0z" transform="translate(-490 -1221) translate(60 967) translate(400 224) translate(30 30)"/>
                        <g transform="translate(-490 -1221) translate(60 967) translate(400 224) translate(30 30) translate(12 12)">
                            <mask id="j1ulpwsapb" fill="#fff">
                                <use xlink:href="#lp4108kj3a"/>
                            </mask>
                            <use fill="#000" fill-rule="nonzero" xlink:href="#lp4108kj3a"/>
                            <path fill="#E39A15" fill-rule="nonzero" d="M0 0H25V24H0z" mask="url(#j1ulpwsapb)"/>
                        </g>
                    </g>
                </g>
            </g>
        </g>
    </g>
</svg>
