<svg xmlns="http://www.w3.org/2000/svg" xmlns:xlink="http://www.w3.org/1999/xlink" width="48" height="48" viewBox="0 0 48 48">
    <defs>
        <path id="d31vdi2f8a" d="M17.188 3c3.164 0 5.729 2.5 5.729 6 0 7-7.813 11-10.417 12.5C9.896 20 2.083 16 2.083 9c0-3.5 2.604-6 5.73-6C9.75 3 11.457 4 12.5 5c1.042-1 2.75-2 4.688-2zm-3.715 15.604c.918-.556 1.746-1.109 2.52-1.701 3.106-2.37 4.84-4.96 4.84-7.903 0-2.36-1.6-4-3.645-4-1.121 0-2.334.57-3.215 1.414L12.5 7.828l-1.473-1.414C10.146 5.57 8.933 5 7.813 5 5.792 5 4.167 6.656 4.167 9c0 2.944 1.735 5.533 4.838 7.903.776.592 1.604 1.145 2.522 1.7.312.189.62.37.973.572.353-.202.661-.383.973-.571z"/>
    </defs>
    <g fill="none" fill-rule="evenodd">
        <g>
            <g>
                <g>
                    <g>
                        <path fill="#090DFF" fill-opacity=".15" d="M15.383 0h17.234c5.349 0 7.289.557 9.244 1.603 1.956 1.046 3.49 2.58 4.536 4.536C47.443 8.094 48 10.034 48 15.383v17.234c0 5.349-.557 7.289-1.603 9.244-1.046 1.956-2.58 3.49-4.536 4.536C39.906 47.443 37.966 48 32.617 48H15.383c-5.349 0-7.289-.557-9.244-1.603-1.956-1.046-3.49-2.58-4.536-4.536C.557 39.906 0 37.966 0 32.617V15.383c0-5.349.557-7.289 1.603-9.244 1.046-1.956 2.58-3.49 4.536-4.536C8.094.557 10.034 0 15.383 0z" transform="translate(-490 -1653) translate(60 967) translate(400 656) translate(30 30)"/>
                        <g transform="translate(-490 -1653) translate(60 967) translate(400 656) translate(30 30) translate(12 12)">
                            <mask id="pk2kmu9crb" fill="#fff">
                                <use xlink:href="#d31vdi2f8a"/>
                            </mask>
                            <use fill="#000" fill-rule="nonzero" xlink:href="#d31vdi2f8a"/>
                            <path fill="#090DFF" fill-rule="nonzero" d="M0 0H25V24H0z" mask="url(#pk2kmu9crb)"/>
                        </g>
                    </g>
                </g>
            </g>
        </g>
    </g>
</svg>
