<svg xmlns="http://www.w3.org/2000/svg" xmlns:xlink="http://www.w3.org/1999/xlink" width="48" height="48" viewBox="0 0 48 48">
    <defs>
        <path id="4o6q95djva" d="M16.148 19.545c-.69 1.582-2 2.84-3.648 3.502-1.648-.662-2.959-1.92-3.648-3.502h2.354c.34.489.778.912 1.294 1.243.516-.33.954-.754 1.295-1.243h2.353zm2.602-5.195l2.083 2.268v1.927H4.167v-1.927L6.25 14.35V8.545C6.25 5.062 8.858 2.098 12.5 1c3.642 1.098 6.25 4.062 6.25 7.545v5.805zm-.76 2.195l-1.323-1.44v-6.56c0-2.318-1.636-4.43-4.167-5.42-2.531.99-4.167 3.101-4.167 5.42v6.56l-1.323 1.44h10.98zm-5.49-6c-1.15 0-2.083-.895-2.083-2s.932-2 2.083-2c1.15 0 2.083.895 2.083 2s-.932 2-2.083 2z"/>
    </defs>
    <g fill="none" fill-rule="evenodd">
        <g>
            <g>
                <g>
                    <g>
                        <path fill="#00BCFF" fill-opacity=".154" d="M15.383 0h17.234c5.349 0 7.289.557 9.244 1.603 1.956 1.046 3.49 2.58 4.536 4.536C47.443 8.094 48 10.034 48 15.383v17.234c0 5.349-.557 7.289-1.603 9.244-1.046 1.956-2.58 3.49-4.536 4.536C39.906 47.443 37.966 48 32.617 48H15.383c-5.349 0-7.289-.557-9.244-1.603-1.956-1.046-3.49-2.58-4.536-4.536C.557 39.906 0 37.966 0 32.617V15.383c0-5.349.557-7.289 1.603-9.244 1.046-1.956 2.58-3.49 4.536-4.536C8.094.557 10.034 0 15.383 0z" transform="translate(-90 -2312) translate(60 2058) translate(0 224) translate(30 30)"/>
                        <g transform="translate(-90 -2312) translate(60 2058) translate(0 224) translate(30 30) translate(12 12)">
                            <mask id="mp2kgk9sib" fill="#fff">
                                <use xlink:href="#4o6q95djva"/>
                            </mask>
                            <use fill="#00BCFF" fill-rule="nonzero" xlink:href="#4o6q95djva"/>
                            <path fill="#00BCFF" fill-rule="nonzero" d="M0 0H25V24H0z" mask="url(#mp2kgk9sib)"/>
                        </g>
                    </g>
                </g>
            </g>
        </g>
    </g>
</svg>
