<svg xmlns="http://www.w3.org/2000/svg" xmlns:xlink="http://www.w3.org/1999/xlink" width="48" height="48" viewBox="0 0 48 48">
    <defs>
        <path id="q84iwvwxoa" d="M13.542 9h8.333L11.458 24v-9H4.167l9.375-15v9zm-2.084 2V7.22L7.846 13h5.696v4.394L17.982 11h-6.524z"/>
    </defs>
    <g fill="none" fill-rule="evenodd">
        <g>
            <g>
                <g>
                    <g>
                        <path fill="#E39A15" fill-opacity=".15" d="M15.383 0h17.234c5.349 0 7.289.557 9.244 1.603 1.956 1.046 3.49 2.58 4.536 4.536C47.443 8.094 48 10.034 48 15.383v17.234c0 5.349-.557 7.289-1.603 9.244-1.046 1.956-2.58 3.49-4.536 4.536C39.906 47.443 37.966 48 32.617 48H15.383c-5.349 0-7.289-.557-9.244-1.603-1.956-1.046-3.49-2.58-4.536-4.536C.557 39.906 0 37.966 0 32.617V15.383c0-5.349.557-7.289 1.603-9.244 1.046-1.956 2.58-3.49 4.536-4.536C8.094.557 10.034 0 15.383 0z" transform="translate(-490 -2724) translate(60 2058) translate(400 636) translate(30 30)"/>
                        <g transform="translate(-490 -2724) translate(60 2058) translate(400 636) translate(30 30) translate(12 12)">
                            <mask id="5wgxthdq5b" fill="#fff">
                                <use xlink:href="#q84iwvwxoa"/>
                            </mask>
                            <use fill="#E39A15" fill-rule="nonzero" xlink:href="#q84iwvwxoa"/>
                            <path fill="#E39A15" fill-rule="nonzero" d="M0 0H25V24H0z" mask="url(#5wgxthdq5b)"/>
                        </g>
                    </g>
                </g>
            </g>
        </g>
    </g>
</svg>
