<svg xmlns="http://www.w3.org/2000/svg" xmlns:xlink="http://www.w3.org/1999/xlink" width="48" height="48" viewBox="0 0 48 48">
    <defs>
        <path id="a2yivw75ea" d="M18.782 16.617l4.462 4.282-1.474 1.415-4.46-4.283c-1.66 1.277-3.725 1.972-5.852 1.969-5.175 0-9.375-4.032-9.375-9s4.2-9 9.375-9 9.375 4.032 9.375 9c.003 2.042-.72 4.024-2.05 5.617zm-2.09-.742C18.016 14.57 18.754 12.82 18.75 11c0-3.868-3.264-7-7.292-7-4.029 0-7.291 3.132-7.291 7 0 3.867 3.262 7 7.291 7 1.897.003 3.719-.706 5.078-1.975l.157-.15zm-4.007-8.699c-.844.366-1.335 1.224-1.204 2.105.13.88.851 1.572 1.768 1.698.918.125 1.811-.346 2.193-1.157.563 1.757-.193 3.655-1.833 4.604-1.64.948-3.742.7-5.096-.599-1.354-1.3-1.61-3.317-.623-4.892.988-1.574 2.966-2.3 4.795-1.759z"/>
    </defs>
    <g fill="none" fill-rule="evenodd">
        <g>
            <g>
                <g>
                    <g>
                        <path fill="#FF0047" fill-opacity=".15" d="M15.383 0h17.234c5.349 0 7.289.557 9.244 1.603 1.956 1.046 3.49 2.58 4.536 4.536C47.443 8.094 48 10.034 48 15.383v17.234c0 5.349-.557 7.289-1.603 9.244-1.046 1.956-2.58 3.49-4.536 4.536C39.906 47.443 37.966 48 32.617 48H15.383c-5.349 0-7.289-.557-9.244-1.603-1.956-1.046-3.49-2.58-4.536-4.536C.557 39.906 0 37.966 0 32.617V15.383c0-5.349.557-7.289 1.603-9.244 1.046-1.956 2.58-3.49 4.536-4.536C8.094.557 10.034 0 15.383 0z" transform="translate(-890 -2312) translate(60 2058) translate(800 224) translate(30 30)"/>
                        <g transform="translate(-890 -2312) translate(60 2058) translate(800 224) translate(30 30) translate(12 12)">
                            <mask id="vw5a9y5d9b" fill="#fff">
                                <use xlink:href="#a2yivw75ea"/>
                            </mask>
                            <use fill="#FF0047" fill-rule="nonzero" xlink:href="#a2yivw75ea"/>
                            <path fill="#FF0047" fill-rule="nonzero" d="M0 0H25V24H0z" mask="url(#vw5a9y5d9b)"/>
                        </g>
                    </g>
                </g>
            </g>
        </g>
    </g>
</svg>
