<svg xmlns="http://www.w3.org/2000/svg" width="67" height="13" viewBox="0 0 67 13">
    <g fill="none" fill-rule="evenodd">
        <g fill="#0068E4" fill-rule="nonzero">
            <g>
                <g>
                    <path d="M213.587 66.737c.276-.006.505.212.511.488.007.277-.212.506-.488.512-.337.008-.674.012-1.01.013-.277 0-.501-.223-.502-.5 0-.275.223-.5.5-.5.329 0 .659-.005.989-.013zm-6.032-.242l.09.001c.329.035.657.065.986.093.275.023.48.264.456.54-.023.275-.264.48-.54.456-.335-.028-.67-.06-1.006-.094-.274-.029-.474-.275-.445-.55.022-.213.176-.381.373-.432l.086-.014zm11.524.297c.035.273-.158.524-.432.56-.334.043-.669.083-1.003.12-.275.029-.522-.17-.551-.444-.03-.275.168-.521.443-.551.327-.036.655-.075.983-.117.274-.035.524.158.56.432zm-16.388-1.07l.09.011c.323.068.647.132.97.193.272.051.45.313.4.584-.052.271-.313.45-.584.399-.33-.062-.661-.128-.991-.197-.27-.057-.444-.322-.387-.592.044-.21.214-.362.414-.392l.088-.005zm21.312.121c.063.269-.103.538-.372.601-.329.077-.657.15-.986.221-.27.058-.536-.114-.593-.384-.058-.27.114-.536.384-.594.322-.069.644-.14.966-.216.27-.064.538.103.601.372zm-26.034-1.365c.316.098.633.194.949.286.265.078.417.356.34.62-.078.266-.356.418-.62.34-.323-.094-.645-.191-.967-.292-.264-.082-.41-.363-.328-.627.082-.263.363-.41.626-.327zm30.823-.053c.088.262-.053.546-.314.634-.32.108-.64.212-.96.313-.263.084-.544-.062-.627-.325-.084-.264.062-.545.325-.628.314-.1.628-.202.942-.308.262-.088.546.053.634.314zm16.633-8.689l-5.277 8.568-2.176-3.51c-.044.095-.118.177-.218.23-.297.159-.595.315-.892.468-.246.126-.547.03-.674-.217-.126-.245-.03-.547.216-.673.294-.15.587-.304.88-.46.079-.042.163-.06.247-.059l-2.126-3.427 10.02-.92zm-52.106 7.055c.307.127.614.25.92.37.257.101.384.392.283.649-.101.257-.392.383-.649.282-.311-.122-.623-.248-.935-.377-.255-.105-.377-.397-.271-.652.105-.256.397-.377.652-.272zm40.137-.216c.11.253-.005.548-.258.658-.31.135-.619.267-.928.396-.254.106-.547-.014-.654-.269-.106-.255.015-.548.27-.654.303-.127.607-.256.911-.39.253-.11.548.006.659.259zm-44.659-1.87c.296.151.592.3.888.445.248.121.35.42.229.669-.122.248-.421.35-.67.228-.3-.147-.6-.297-.9-.45-.247-.126-.345-.427-.22-.673.126-.246.427-.344.673-.218zm-4.342-2.416c.284.172.569.341.853.507.239.14.319.446.18.684-.14.239-.446.319-.685.18-.288-.169-.576-.34-.865-.514-.236-.143-.312-.45-.17-.687.143-.236.45-.312.687-.17zm-4.17-2.7c.273.19.547.377.82.561.23.155.29.465.136.694-.155.23-.466.29-.694.135-.278-.187-.555-.376-.832-.568-.227-.157-.283-.469-.126-.696.157-.227.469-.283.696-.126z" transform="translate(-219 -3480) translate(40 3216) translate(0 209)"/>
                </g>
            </g>
        </g>
    </g>
</svg>
