<svg xmlns="http://www.w3.org/2000/svg" xmlns:xlink="http://www.w3.org/1999/xlink" width="16" height="16" viewBox="0 0 16 16">
    <defs>
        <path id="f8bu377fba" d="M8 14.667c-3.682 0-6.667-2.985-6.667-6.667S4.318 1.333 8 1.333 14.667 4.318 14.667 8 11.682 14.667 8 14.667zm0-7.61L6.115 5.171l-.944.944L7.057 8 5.171 9.885l.944.944L8 8.943l1.885 1.886.944-.944L8.943 8l1.886-1.885-.944-.944L8 7.057z"/>
    </defs>
    <g fill="none" fill-rule="evenodd">
        <g>
            <g>
                <g>
                    <g transform="translate(-560 -1182) translate(60 998) translate(500 130) translate(0 54)">
                        <mask id="gy43pfheqb" fill="#fff">
                            <use xlink:href="#f8bu377fba"/>
                        </mask>
                        <use fill="#000" fill-rule="nonzero" xlink:href="#f8bu377fba"/>
                        <path fill="#FF0047" fill-rule="nonzero" d="M0 0H16V16H0z" mask="url(#gy43pfheqb)"/>
                    </g>
                </g>
            </g>
        </g>
    </g>
</svg>
